<svg width="86" height="86" viewBox="0 0 86 86" fill="none" xmlns="http://www.w3.org/2000/svg">
<path d="M76.7328 0H56.8331C52.4646 0 46.6225 2.4198 43.5341 5.50885L2.70587 46.3364C0.960572 48.0811 0 50.4077 0 52.8885C0 55.3693 0.961228 57.696 2.70587 59.4406L26.5587 83.2941C28.3034 85.0388 30.6307 86 33.1108 86C35.5917 86 37.9183 85.0388 39.6636 83.2941L80.4911 42.4659C83.5802 39.3775 86 33.5354 86 29.1669V9.26584C85.9993 4.15657 81.8421 0 76.7328 0ZM71.9031 17.8047C71.434 18.2732 70.7844 18.5422 70.121 18.5422C69.457 18.5422 68.8088 18.2732 68.3403 17.8047C67.8699 17.3362 67.6015 16.6866 67.6015 16.0226C67.6015 15.3593 67.8699 14.711 68.3403 14.2419C68.8088 13.7734 69.457 13.5051 70.121 13.5051C70.7844 13.5051 71.434 13.7734 71.9031 14.2419C72.3716 14.711 72.6406 15.3593 72.6406 16.0226C72.6406 16.6866 72.3716 17.3362 71.9031 17.8047Z" fill="#941B0C"/>
</svg>
